# This file uses centimeters as units for non-parametric coordinates.

mtllib dummyCube.mtl
g default
v -30.000000 0.000000 30.000000
v 30.000000 0.000000 30.000000
v 30.000000 0.000000 -30.000000
v -30.000000 0.000000 -30.000000
v 0.000000 0.000000 0.000000
vt 0.000000 0.000000
vt 0.000000 1.000000
vt 1.000000 1.000000
vt 1.000000 0.000000
vt 0.500000 0.500000
vn 0.000000 1.000000 0.000000
s off
g pPlane1
usemtl initialShadingGroup
f 1/1/1 2/2/1 5/5/1
f 2/2/1 3/3/1 5/5/1
f 3/3/1 4/4/1 5/5/1
f 4/4/1 1/1/1 5/5/1