# This file uses centimeters as units for non-parametric coordinates.

v -5.408886 0.030016 -1.500000
v -5.250000 0.011019 -1.500000
v -5.000000 0.011019 -1.500000
v -4.750000 0.011019 -1.500000
v -4.588916 0.011019 -1.500000
v -5.382493 -0.026678 -0.750000
v -5.191247 -0.026678 -0.750000
v -5.000000 -0.026678 -0.750000
v -4.808753 -0.026678 -0.750000
v -4.617507 -0.026678 -0.750000
v -5.355815 0.000000 -0.000000
v -5.177907 0.000000 -0.000000
v -5.000000 0.000000 -0.000000
v -4.822093 0.000000 -0.000000
v -4.644185 -0.000000 -0.000000
v -5.426152 -0.070338 0.750000
v -5.213076 -0.070338 0.750000
v -5.000000 -0.070338 0.750000
v -4.786924 -0.070338 0.750000
v -4.573847 -0.070338 0.750000
v -5.414656 0.085258 1.500000
v -5.283824 -0.080935 1.500000
v -5.099031 -0.057802 1.500000
v -4.846539 -0.046868 1.500000
v -4.681113 -0.019813 1.500000
v -5.419103 0.270052 1.500000
v -5.270658 0.070522 1.500000
v -5.000000 0.061786 1.500001
v -4.750000 0.105814 1.500001
v -4.679928 0.071990 1.500000
v -5.369587 0.454846 1.500000
v -5.277659 0.355815 1.500001
v -4.750000 0.355815 1.500001
v -4.630412 0.256784 1.500000
v -5.320072 0.639639 1.500000
v -5.250000 0.541865 1.500001
v -5.000000 0.642240 1.500001
v -4.750000 0.569681 1.500001
v -4.581979 0.502778 1.500000
v -5.270557 0.710892 1.500000
v -5.085763 0.774918 1.500000
v -4.900969 0.725402 1.500000
v -4.716175 0.675887 1.500000
v -4.599258 0.626372 1.500000
v -5.372705 0.728821 0.750000
v -5.213076 0.781967 0.750000
v -5.000000 0.781967 0.750000
v -4.786924 0.781967 0.750000
v -4.632372 0.734069 0.750000
v -5.361536 0.645650 -0.000000
v -5.177907 0.711630 -0.000000
v -5.000000 0.758410 -0.000000
v -4.822093 0.711630 -0.000000
v -4.644185 0.619573 -0.000000
v -5.332495 0.667540 -0.750000
v -5.191247 0.738308 -0.750000
v -5.000000 0.827422 -0.750000
v -4.808753 0.738308 -0.750000
v -4.617507 0.646251 -0.750000
v -5.389821 0.878206 -1.500000
v -5.250000 0.918104 -1.500000
v -5.000000 1.011019 -1.500000
v -4.750000 0.944187 -1.500000
v -4.586963 0.894926 -1.500000
v -5.427856 0.761019 -1.500000
v -5.250000 0.734613 -1.500000
v -5.000000 0.817708 -1.500000
v -4.699602 0.713328 -1.500000
v -4.500000 0.761019 -1.500000
v -5.500000 0.511019 -1.500000
v -5.390306 0.355815 -1.500000
v -4.607705 0.355815 -1.500000
v -4.500000 0.511020 -1.500000
v -5.500000 0.261019 -1.500000
v -5.250000 0.105815 -1.500000
v -5.000000 0.105815 -1.500000
v -4.750000 0.105815 -1.500000
v -4.485132 0.205144 -1.500000
v -4.617507 0.547061 -0.750000
v -4.617507 0.355815 -0.750000
v -4.617507 0.164568 -0.750000
v -4.644185 0.533722 -0.000000
v -4.644185 0.355815 -0.000000
v -4.644185 0.177907 -0.000000
v -4.573847 0.568891 0.750000
v -4.573847 0.355815 0.750000
v -4.611841 0.142738 0.750000
v -5.382493 0.547061 -0.750000
v -5.382493 0.355815 -0.750000
v -5.433625 0.164568 -0.750000
v -5.355815 0.533722 -0.000000
v -5.355815 0.355815 -0.000000
v -5.355815 0.177907 -0.000000
v -5.426153 0.568891 0.750000
v -5.426153 0.355815 0.750000
v -5.426153 0.142738 0.750000
vt 0.375000 0.000000
vt 0.437500 0.000000
vt 0.500000 0.000000
vt 0.562500 0.000000
vt 0.625000 0.000000
vt 0.375000 0.062500
vt 0.437500 0.062500
vt 0.500000 0.062500
vt 0.562500 0.062500
vt 0.625000 0.062500
vt 0.375000 0.125000
vt 0.437500 0.125000
vt 0.500000 0.125000
vt 0.562500 0.125000
vt 0.625000 0.125000
vt 0.375000 0.187500
vt 0.437500 0.187500
vt 0.500000 0.187500
vt 0.562500 0.187500
vt 0.625000 0.187500
vt 0.375000 0.250000
vt 0.437500 0.250000
vt 0.500000 0.250000
vt 0.562500 0.250000
vt 0.625000 0.250000
vt 0.375000 0.312500
vt 0.437500 0.312500
vt 0.500000 0.312500
vt 0.562500 0.312500
vt 0.625000 0.312500
vt 0.375000 0.375000
vt 0.437500 0.375000
vt 0.562500 0.375000
vt 0.625000 0.375000
vt 0.375000 0.437500
vt 0.437500 0.437500
vt 0.500000 0.437500
vt 0.562500 0.437500
vt 0.625000 0.437500
vt 0.375000 0.500000
vt 0.437500 0.500000
vt 0.500000 0.500000
vt 0.562500 0.500000
vt 0.625000 0.500000
vt 0.375000 0.562500
vt 0.437500 0.562500
vt 0.500000 0.562500
vt 0.562500 0.562500
vt 0.625000 0.562500
vt 0.375000 0.625000
vt 0.437500 0.625000
vt 0.500000 0.625000
vt 0.562500 0.625000
vt 0.625000 0.625000
vt 0.375000 0.687500
vt 0.437500 0.687500
vt 0.500000 0.687500
vt 0.562500 0.687500
vt 0.625000 0.687500
vt 0.375000 0.750000
vt 0.437500 0.750000
vt 0.500000 0.750000
vt 0.562500 0.750000
vt 0.625000 0.750000
vt 0.375000 0.812500
vt 0.437500 0.812500
vt 0.500000 0.812500
vt 0.562500 0.812500
vt 0.625000 0.812500
vt 0.375000 0.875000
vt 0.437500 0.875000
vt 0.562500 0.875000
vt 0.625000 0.875000
vt 0.375000 0.937500
vt 0.437500 0.937500
vt 0.500000 0.937500
vt 0.562500 0.937500
vt 0.625000 0.937500
vt 0.375000 1.000000
vt 0.437500 1.000000
vt 0.500000 1.000000
vt 0.562500 1.000000
vt 0.625000 1.000000
vt 0.875000 0.000000
vt 0.812500 0.000000
vt 0.750000 0.000000
vt 0.687500 0.000000
vt 0.875000 0.062500
vt 0.812500 0.062500
vt 0.750000 0.062500
vt 0.687500 0.062500
vt 0.875000 0.125000
vt 0.812500 0.125000
vt 0.750000 0.125000
vt 0.687500 0.125000
vt 0.875000 0.187500
vt 0.812500 0.187500
vt 0.750000 0.187500
vt 0.687500 0.187500
vt 0.875000 0.250000
vt 0.812500 0.250000
vt 0.750000 0.250000
vt 0.687500 0.250000
vt 0.125000 0.000000
vt 0.187500 0.000000
vt 0.250000 0.000000
vt 0.312500 0.000000
vt 0.125000 0.062500
vt 0.187500 0.062500
vt 0.250000 0.062500
vt 0.312500 0.062500
vt 0.125000 0.125000
vt 0.187500 0.125000
vt 0.250000 0.125000
vt 0.312500 0.125000
vt 0.125000 0.187500
vt 0.187500 0.187500
vt 0.250000 0.187500
vt 0.312500 0.187500
vt 0.125000 0.250000
vt 0.187500 0.250000
vt 0.250000 0.250000
vt 0.312500 0.250000
vt 0.437500 0.312500
vt 0.500000 0.312500
vt 0.437500 0.375000
vt 0.562500 0.312500
vt 0.562500 0.375000
vt 0.500000 0.437500
vt 0.437500 0.437500
vt 0.562500 0.437500
vt 0.000000 0.000000
vt 1.000000 0.000000
vt 1.000000 1.000000
vt 0.000000 1.000000
vn -0.118418 -0.990444 -0.070703
vn -0.041261 -0.997497 -0.057427
vn -0.006752 -0.999936 -0.009041
vn 0.000000 -0.999967 -0.008134
vn 0.000000 -0.998739 -0.050200
vn 0.000000 -0.999971 -0.007569
vn -0.000000 -0.998739 -0.050200
vn -0.000000 -0.999967 -0.008134
vn -0.000000 -0.998739 -0.050200
vn -0.000000 -0.999969 -0.007899
vn 0.000000 -0.999522 -0.030912
vn 0.000000 -0.999566 -0.029463
vn 0.000000 -0.999577 -0.029094
vn -0.000001 -0.999566 -0.029463
vn -0.000001 -0.999522 -0.030912
vn 0.004309 -0.998914 -0.046401
vn -0.071150 -0.996692 -0.039281
vn 0.002727 -0.999427 -0.033750
vn 0.004547 -0.999734 -0.022631
vn -0.000000 -0.999894 -0.014555
vn -0.366121 -0.927651 0.073619
vn -0.778111 -0.612552 0.139008
vn 0.070623 -0.997426 0.012438
vn 0.084604 -0.995919 0.031410
vn 0.129063 -0.990449 0.048514
vn 0.000000 -0.000000 1.000000
vn -0.000001 -0.000002 1.000000
vn 0.000000 -0.000000 1.000000
vn -0.000004 -0.000001 1.000000
vn 0.000001 -0.000007 1.000000
vn 0.000002 -0.000007 1.000000
vn 0.000005 -0.000005 1.000000
vn 0.000013 -0.000002 1.000000
vn -0.000007 -0.000000 1.000000
vn -0.000009 0.000002 1.000000
vn 0.000006 -0.000000 1.000000
vn 0.000005 0.000000 1.000000
vn -0.000008 0.000004 1.000000
vn -0.000006 0.000004 1.000000
vn -0.000002 0.000005 1.000000
vn -0.000001 0.000006 1.000000
vn 0.000000 0.000007 1.000000
vn 0.000003 0.000007 1.000000
vn 0.000003 0.000003 1.000000
vn 0.000001 0.000003 1.000000
vn 0.000004 0.000000 1.000000
vn 0.000003 0.000001 1.000000
vn -0.030602 0.998316 0.049291
vn -0.152468 0.987836 -0.030549
vn -0.325374 0.943386 0.064464
vn -0.317931 0.947795 -0.024587
vn 0.233374 0.969437 0.075682
vn 0.009504 0.999726 -0.021402
vn 0.309882 0.944102 0.112452
vn 0.136646 0.990615 -0.003315
vn 0.387422 0.914795 0.114255
vn 0.316372 0.948630 -0.003233
vn -0.297195 0.953759 -0.044925
vn -0.337757 0.940013 -0.047919
vn 0.101211 0.994857 -0.003886
vn 0.345311 0.938119 -0.026315
vn 0.456620 0.888356 -0.048191
vn -0.432237 0.888855 0.152015
vn -0.424305 0.884698 0.193068
vn 0.413196 0.893246 0.177146
vn 0.127573 0.967733 0.217299
vn 0.426997 0.887079 0.175400
vn -0.289417 0.924242 0.249027
vn -0.319582 0.918431 0.233136
vn -0.048389 0.970182 0.237497
vn 0.275888 0.927561 0.252024
vn 0.305554 0.909958 0.280380
vn -0.000000 0.000001 -1.000000
vn -0.000001 0.000001 -1.000000
vn -0.000001 0.000001 -1.000000
vn -0.000001 0.000000 -1.000000
vn -0.000000 0.000001 -1.000000
vn -0.000000 0.000001 -1.000000
vn 0.000000 0.000001 -1.000000
vn 0.000001 0.000001 -1.000000
vn 0.000001 0.000001 -1.000000
vn 0.000001 0.000000 -1.000000
vn -0.000001 0.000000 -1.000000
vn -0.000002 -0.000000 -1.000000
vn 0.000002 0.000000 -1.000000
vn 0.000002 -0.000000 -1.000000
vn -0.000002 -0.000001 -1.000000
vn -0.000001 -0.000002 -1.000000
vn 0.000001 -0.000001 -1.000000
vn 0.000001 -0.000002 -1.000000
vn -0.000001 -0.000001 -1.000000
vn -0.000000 -0.000002 -1.000000
vn 0.000000 -0.000003 -1.000000
vn 0.000000 -0.000003 -1.000000
vn -0.000000 -0.000002 -1.000000
vn 0.000001 -0.000002 -1.000000
vn 0.819968 0.532514 0.209957
vn 0.992569 0.050072 0.110900
vn 0.952290 0.241810 0.186204
vn 0.995122 -0.000000 0.098649
vn 0.986904 0.023779 0.159545
vn 0.994641 0.004736 0.103284
vn 0.973251 -0.168769 0.155882
vn 0.996874 -0.024791 0.075019
vn 0.903912 -0.410950 0.118593
vn 0.999322 -0.000001 0.036815
vn 0.998515 0.044150 -0.031915
vn 0.999556 -0.000000 -0.029789
vn 0.999577 0.000000 -0.029094
vn 0.999840 -0.009504 -0.015138
vn 0.999799 0.018194 -0.008409
vn 0.987997 0.150102 -0.036480
vn 0.942163 0.333820 -0.029878
vn 0.995717 -0.090377 -0.019507
vn 0.999807 -0.015002 0.012705
vn 0.984109 0.175477 0.027158
vn 0.984533 0.174054 0.020017
vn 0.996818 -0.070565 0.037085
vn 0.974577 -0.217321 0.054509
vn 0.982314 -0.172461 0.072908
vn 0.993522 0.049215 0.102430
vn -0.939294 0.304866 0.157428
vn -0.946151 0.289576 0.144721
vn -0.922230 0.378862 0.077174
vn -0.983703 0.156001 0.089404
vn -0.979523 0.137735 0.146849
vn -0.988099 0.115395 0.101704
vn -0.982961 -0.154282 0.099926
vn -0.997397 -0.013225 0.070878
vn -0.935119 -0.352845 0.032457
vn -0.965654 -0.258176 0.029272
vn -0.999466 0.010240 -0.031042
vn -0.999389 -0.018937 -0.029380
vn -0.999577 0.000000 -0.029094
vn -0.999882 0.011705 -0.009969
vn -0.999750 -0.022216 -0.002387
vn -0.989764 0.142482 0.008176
vn -0.946261 0.322040 0.029678
vn -0.999635 0.009524 -0.025285
vn -0.999178 -0.000822 -0.040542
vn -0.999146 -0.000001 -0.041330
vn -0.926636 0.357595 0.116064
vn -0.814797 0.566219 0.124509
vn -0.969437 0.233374 0.075682
vn -0.993443 0.111544 0.025079
vn -0.999709 -0.019769 0.013809
vn -0.000001 -0.000007 1.000000
vn -0.000002 -0.000005 1.000000
vn 0.999673 0.024535 0.007172
vn 0.885008 0.464573 -0.030555
vn 0.998582 0.053012 0.004789
vn 0.871583 0.489154 -0.032727
vn 0.371929 -0.926351 -0.059517
vn 0.318236 -0.946376 -0.055660
vn 0.368896 -0.927577 -0.059302
vn 0.314927 -0.947497 -0.055418
vn -0.278376 -0.959138 -0.050602
vn -0.282359 -0.957954 -0.050973
vn -0.325497 -0.943944 -0.054961
vn -0.327722 -0.943162 -0.055165
vn 0.032258 0.999408 0.011979
vn 0.030676 0.999456 0.012112
vn 0.001986 0.999893 0.014509
vn 0.000001 0.999892 0.014675
vn -0.173428 0.984740 0.014452
vn -0.164513 0.986280 0.013709
vn -0.009457 0.999955 0.000788
vn 0.000000 1.000000 0.000000
vn -0.868347 0.494244 -0.041187
vn -0.879490 0.474274 -0.039523
vn -0.999405 0.034373 -0.002864
vn -1.000000 -0.000000 -0.000000
vn 0.988448 -0.146949 -0.037115
vn 0.938857 -0.343564 -0.022602
vn 0.983098 -0.179734 -0.034832
vn 0.937507 -0.347251 -0.022311
vn -0.998877 -0.000000 -0.047378
vn -0.998502 -0.030901 -0.045158
vn -0.969762 -0.242357 -0.028720
vn -0.968131 -0.248854 -0.028180
vn -0.254111 0.966393 0.038895
vn -0.287126 0.956711 0.047573
vn -0.399134 0.913629 0.077289
vn -0.420901 0.903291 0.083117
s 1
f 1/1/1 2/2/2 6/6/3
f 6/6/3 2/2/2 7/7/4
f 2/2/2 3/3/5 7/7/4
f 7/7/4 3/3/5 8/8/6
f 4/4/7 9/9/8 3/3/5
f 3/3/5 9/9/8 8/8/6
f 5/5/9 10/10/10 4/4/7
f 4/4/7 10/10/10 9/9/8
f 6/6/3 7/7/4 11/11/11
f 11/11/11 7/7/4 12/12/12
f 7/7/4 8/8/6 12/12/12
f 12/12/12 8/8/6 13/13/13
f 9/9/8 14/14/14 8/8/6
f 8/8/6 14/14/14 13/13/13
f 10/10/10 15/15/15 9/9/8
f 9/9/8 15/15/15 14/14/14
f 12/12/12 17/17/16 11/11/11
f 11/11/11 17/17/16 16/16/17
f 13/13/13 18/18/18 12/12/12
f 12/12/12 18/18/18 17/17/16
f 13/13/13 14/14/14 18/18/18
f 18/18/18 14/14/14 19/19/19
f 14/14/14 15/15/15 19/19/19
f 19/19/19 15/15/15 20/20/20
f 17/17/16 22/22/21 16/16/17
f 16/16/17 22/22/21 21/21/22
f 18/18/18 23/23/23 17/17/16
f 17/17/16 23/23/23 22/22/21
f 19/19/19 24/24/24 18/18/18
f 18/18/18 24/24/24 23/23/23
f 20/20/20 25/25/25 19/19/19
f 19/19/19 25/25/25 24/24/24
s 3
f 22/22/26 27/27/27 21/21/28
f 21/21/28 27/27/27 26/26/29
f 24/24/30 25/25/31 29/29/32
f 29/29/32 25/25/31 30/30/33
f 27/27/27 32/32/34 26/26/29
f 26/26/29 32/32/34 31/31/35
f 30/30/33 34/34/36 29/29/32
f 29/29/32 34/34/36 33/33/37
f 35/35/38 31/31/35 36/36/39
f 36/36/39 31/31/35 32/32/34
f 35/35/38 36/36/39 40/40/40
f 40/40/40 36/36/39 41/41/41
f 36/36/39 37/37/42 41/41/41
f 41/41/41 37/37/42 42/42/43
f 37/37/42 38/38/44 42/42/43
f 42/42/43 38/38/44 43/43/45
f 39/39/46 44/44/47 38/38/44
f 38/38/44 44/44/47 43/43/45
s 5
f 41/41/48 46/46/49 40/40/50
f 40/40/50 46/46/49 45/45/51
f 42/42/52 47/47/53 41/41/48
f 41/41/48 47/47/53 46/46/49
f 43/43/54 48/48/55 42/42/52
f 42/42/52 48/48/55 47/47/53
f 44/44/56 49/49/57 43/43/54
f 43/43/54 49/49/57 48/48/55
f 46/46/49 51/51/58 45/45/51
f 45/45/51 51/51/58 50/50/59
f 46/46/49 47/47/53 51/51/58
f 51/51/58 47/47/53 52/52/60
f 48/48/55 53/53/61 47/47/53
f 47/47/53 53/53/61 52/52/60
f 48/48/55 49/49/57 53/53/61
f 53/53/61 49/49/57 54/54/62
f 50/50/59 51/51/58 55/55/63
f 55/55/63 51/51/58 56/56/64
f 53/53/61 58/58/65 52/52/60
f 52/52/60 58/58/65 57/57/66
f 53/53/61 54/54/62 58/58/65
f 58/58/65 54/54/62 59/59/67
f 55/55/63 56/56/64 60/60/68
f 60/60/68 56/56/64 61/61/69
f 56/56/64 57/57/66 61/61/69
f 61/61/69 57/57/66 62/62/70
f 58/58/65 63/63/71 57/57/66
f 57/57/66 63/63/71 62/62/70
f 59/59/67 64/64/72 58/58/65
f 58/58/65 64/64/72 63/63/71
s 8
f 61/61/73 66/66/74 60/60/75
f 60/60/75 66/66/74 65/65/76
f 62/62/77 67/67/78 61/61/73
f 61/61/73 67/67/78 66/66/74
f 62/62/77 63/63/79 67/67/78
f 67/67/78 63/63/79 68/68/80
f 63/63/79 64/64/81 68/68/80
f 68/68/80 64/64/81 69/69/82
f 65/65/76 66/66/74 70/70/83
f 70/70/83 66/66/74 71/71/84
f 69/69/82 73/73/85 68/68/80
f 68/68/80 73/73/85 72/72/86
f 70/70/83 71/71/84 74/74/87
f 74/74/87 71/71/84 75/75/88
f 73/73/85 78/78/89 72/72/86
f 72/72/86 78/78/89 77/77/90
f 74/74/87 75/75/88 1/79/91
f 1/79/91 75/75/88 2/80/92
f 75/75/88 76/76/93 2/80/92
f 2/80/92 76/76/93 3/81/94
f 76/76/93 77/77/90 3/81/94
f 3/81/94 77/77/90 4/82/95
f 78/78/89 5/83/96 77/77/90
f 77/77/90 5/83/96 4/82/95
s 10
f 64/84/97 59/88/98 69/85/99
f 69/85/99 59/88/98 79/89/100
f 69/85/99 79/89/100 73/86/101
f 73/86/101 79/89/100 80/90/102
f 73/86/101 80/90/102 78/87/103
f 78/87/103 80/90/102 81/91/104
f 78/87/103 81/91/104 5/5/105
f 5/5/105 81/91/104 10/10/106
f 59/88/98 54/92/107 79/89/100
f 79/89/100 54/92/107 82/93/108
f 79/89/100 82/93/108 80/90/102
f 80/90/102 82/93/108 83/94/109
f 81/91/104 80/90/102 84/95/110
f 84/95/110 80/90/102 83/94/109
f 10/10/106 81/91/104 15/15/111
f 15/15/111 81/91/104 84/95/110
f 82/93/108 54/92/107 85/97/112
f 85/97/112 54/92/107 49/96/113
f 83/94/109 82/93/108 86/98/114
f 86/98/114 82/93/108 85/97/112
f 83/94/109 86/98/114 84/95/110
f 84/95/110 86/98/114 87/99/115
f 84/95/110 87/99/115 15/15/111
f 15/15/111 87/99/115 20/20/116
f 49/96/113 44/100/117 85/97/112
f 85/97/112 44/100/117 39/101/118
f 85/97/112 39/101/118 86/98/114
f 86/98/114 39/101/118 34/102/119
f 86/98/114 34/102/119 87/99/115
f 87/99/115 34/102/119 30/103/120
f 20/20/116 87/99/115 25/25/121
f 25/25/121 87/99/115 30/103/120
s 11
f 60/104/122 65/105/123 55/108/124
f 55/108/124 65/105/123 88/109/125
f 65/105/123 70/106/126 88/109/125
f 88/109/125 70/106/126 89/110/127
f 70/106/126 74/107/128 89/110/127
f 89/110/127 74/107/128 90/111/129
f 74/107/128 1/1/130 90/111/129
f 90/111/129 1/1/130 6/6/131
f 55/108/124 88/109/125 50/112/132
f 50/112/132 88/109/125 91/113/133
f 88/109/125 89/110/127 91/113/133
f 91/113/133 89/110/127 92/114/134
f 90/111/129 93/115/135 89/110/127
f 89/110/127 93/115/135 92/114/134
f 6/6/131 11/11/136 90/111/129
f 90/111/129 11/11/136 93/115/135
f 91/113/133 94/117/137 50/112/132
f 50/112/132 94/117/137 45/116/138
f 92/114/134 95/118/139 91/113/133
f 91/113/133 95/118/139 94/117/137
f 92/114/134 93/115/135 95/118/139
f 95/118/139 93/115/135 96/119/140
f 93/115/135 11/11/136 96/119/140
f 96/119/140 11/11/136 16/16/141
f 94/117/137 35/121/142 45/116/138
f 45/116/138 35/121/142 40/120/143
f 95/118/139 31/122/144 94/117/137
f 94/117/137 31/122/144 35/121/142
f 96/119/140 26/123/145 95/118/139
f 95/118/139 26/123/145 31/122/144
f 16/16/141 21/21/146 96/119/140
f 96/119/140 21/21/146 26/123/145
s 3
f 28/28/147 27/27/27 23/23/148
f 23/23/148 27/27/27 22/22/26
s 12
f 27/27/149 75/124/150 32/32/151
f 32/32/151 75/124/150 71/126/152
s 3
f 29/29/32 28/28/147 24/24/30
f 24/24/30 28/28/147 23/23/148
s 13
f 36/36/153 66/130/154 37/37/155
f 37/37/155 66/130/154 67/129/156
s 3
f 38/38/44 33/33/37 39/39/46
f 39/39/46 33/33/37 34/34/36
s 14
f 38/38/157 37/37/158 68/131/159
f 68/131/159 37/37/158 67/129/160
s 15
f 27/27/161 28/28/162 75/124/163
f 75/124/163 28/28/162 76/125/164
s 16
f 28/28/165 29/29/166 76/125/167
f 76/125/167 29/29/166 77/127/168
s 17
f 72/128/169 77/127/170 33/33/171
f 33/33/171 77/127/170 29/29/172
s 18
f 32/32/173 71/126/174 36/36/175
f 36/36/175 71/126/174 66/130/176
s 19
f 33/33/177 38/38/178 72/128/179
f 72/128/179 38/38/178 68/131/180
s 20
f 51/132/181 52/133/182 56/135/183
f 56/135/183 52/133/182 57/134/184
